<svg xmlns="http://www.w3.org/2000/svg" xmlns:xlink="http://www.w3.org/1999/xlink" width="335" height="400" viewBox="0 0 335 400">
  <defs>
    <radialGradient id="radial-gradient" cx="0.339" cy="0.936" r="1.122" gradientTransform="matrix(0.421, -0.907, 0.584, 0.271, -0.35, 0.99)" gradientUnits="objectBoundingBox">
      <stop offset="0" stop-color="#8371ff"/>
      <stop offset="1" stop-color="#644eff"/>
    </radialGradient>
    <radialGradient id="radial-gradient-2" cx="0.219" cy="0.022" r="1.341" gradientTransform="matrix(0.482, 0.876, -0.598, 0.329, 0.126, -0.177)" xlink:href="#radial-gradient"/>
    <radialGradient id="radial-gradient-3" cx="0.058" cy="-0.021" r="0.987" gradientTransform="matrix(0.532, 0.847, -0.702, 0.442, 0.012, -0.061)" gradientUnits="objectBoundingBox">
      <stop offset="0" stop-color="#e0dbff"/>
      <stop offset="1" stop-color="#8371ff"/>
    </radialGradient>
    <radialGradient id="radial-gradient-4" cx="0.579" cy="0.028" r="0.571" gradientTransform="matrix(0.999, -0.037, 0.06, 1.608, -0.001, 0.005)" xlink:href="#radial-gradient"/>
    <radialGradient id="radial-gradient-5" cx="0.374" cy="0.988" r="0.878" gradientTransform="matrix(0.378, -0.926, 0.691, 0.282, -0.45, 1.055)" xlink:href="#radial-gradient-3"/>
    <radialGradient id="radial-gradient-6" cx="0.028" cy="0.393" r="1.046" gradientTransform="matrix(0.995, 0.102, 0.102, -0.995, -0.04, 0.781)" gradientUnits="objectBoundingBox">
      <stop offset="0" stop-color="#3ee0ff" stop-opacity="0.502"/>
      <stop offset="1" stop-color="#0d56bd" stop-opacity="0"/>
    </radialGradient>
    <radialGradient id="radial-gradient-7" cx="0.028" cy="0.393" r="1.046" gradientTransform="matrix(0.995, 0.102, 0.102, -0.995, -0.04, 0.781)" gradientUnits="objectBoundingBox">
      <stop offset="0" stop-color="#27d9fb"/>
      <stop offset="1" stop-color="#0d56bd"/>
    </radialGradient>
    <linearGradient id="linear-gradient" x1="-0.128" y1="-0.319" x2="0.819" y2="1.178" gradientUnits="objectBoundingBox">
      <stop offset="0" stop-color="#25cef6"/>
      <stop offset="1" stop-color="#1169c6"/>
    </linearGradient>
    <linearGradient id="linear-gradient-2" y1="0.121" x2="0.977" y2="0.91" gradientUnits="objectBoundingBox">
      <stop offset="0" stop-color="#20b8eb"/>
      <stop offset="1" stop-color="#115eb9"/>
    </linearGradient>
    <linearGradient id="linear-gradient-3" x1="0.17" y1="-0.041" x2="1" y2="0.902" gradientUnits="objectBoundingBox">
      <stop offset="0" stop-color="#1b9cde"/>
      <stop offset="1" stop-color="#115cab"/>
    </linearGradient>
    <linearGradient id="linear-gradient-4" x1="0.5" x2="0.5" y2="1" gradientUnits="objectBoundingBox">
      <stop offset="0" stop-color="#f15555"/>
      <stop offset="0.372" stop-color="#ffaf34"/>
      <stop offset="1" stop-color="#f1ad55" stop-opacity="0"/>
    </linearGradient>
    <clipPath id="clip-banner-mobile">
      <rect width="335" height="400"/>
    </clipPath>
  </defs>
  <g id="banner-mobile" clip-path="url(#clip-banner-mobile)">
    <rect id="Rectangle_192" data-name="Rectangle 192" width="335" height="400" fill="#644eff"/>
    <g id="Group_401" data-name="Group 401" transform="translate(-5236 1257)">
      <path id="Union_9" data-name="Union 9" d="M9.8,220.6a41.048,41.048,0,0,1,10.522-27.477A75.34,75.34,0,1,1,119.631,82.746a55.518,55.518,0,0,1,92.458,10.237,39.773,39.773,0,1,1-2.27,53.9,55.5,55.5,0,0,1-39.013,25.829,48.267,48.267,0,0,1-7.732,51.182,19.573,19.573,0,1,1-34.109,16.536q-1.163.055-2.339.056a48.158,48.158,0,0,1-33.744-13.731A41.8,41.8,0,0,1,9.8,220.6Z" transform="translate(5639 -773) rotate(180)" fill="url(#radial-gradient)"/>
      <path id="Union_7" data-name="Union 7" d="M224.068,175.659a54.6,54.6,0,0,1,3.128-18.276A50.422,50.422,0,0,1,199.87,172.8a58.667,58.667,0,0,1-92.019-3.564A62.843,62.843,0,1,1,36.279,68.421,27.821,27.821,0,0,1,51.767,24.1q-.011-.358-.011-.719a23.354,23.354,0,1,1,46.381,3.915A53.988,53.988,0,0,1,172.29,75.856a50.573,50.573,0,0,1,65.543,63.55,54.42,54.42,0,1,1-13.765,36.253Z" transform="translate(5155 -1040)" fill="url(#radial-gradient-2)"/>
      <path id="Union_15" data-name="Union 15" d="M15,186.458a132.742,132.742,0,0,1,27.972-81.7A50.526,50.526,0,0,1,100.4,21.61,32.466,32.466,0,0,1,159.3,40.483a32.77,32.77,0,0,1-.3,4.469,58.9,58.9,0,0,1,12.147,3.462,24.051,24.051,0,0,1,45.87,9.521A50.93,50.93,0,0,1,289.4,88.276,48.921,48.921,0,0,1,335.592,134.5a46.111,46.111,0,0,1,21.714-5.386c25.236,0,45.694,20.109,45.694,44.915s-20.458,44.915-45.694,44.915c-23.49,0-42.84-17.421-45.406-39.836a48.655,48.655,0,0,1-25.14,6.952q-2.025,0-4.01-.162c0,.189,0,.374,0,.563C282.752,260.211,222.814,320,148.877,320S15,260.211,15,186.458Z" transform="translate(5013 -1040)" fill="url(#radial-gradient-3)"/>
      <path id="Union_8" data-name="Union 8" d="M0,83.394A55.846,55.846,0,0,1,78.109,32.417,57.043,57.043,0,0,1,163.37,21.312a38.706,38.706,0,1,1,16.968,73.515,38.873,38.873,0,0,1-6.246-.5,57.086,57.086,0,0,1-72.98,21.5A55.828,55.828,0,0,1,0,83.394Z" transform="translate(5294 -930)" fill="url(#radial-gradient-4)"/>
      <path id="Union_14" data-name="Union 14" d="M38.99,202.46a37.111,37.111,0,0,1,2.052-12.2A77.267,77.267,0,0,1-15,116.148C-15,73.54,19.8,39,62.722,39c42.676,0,77.318,34.139,77.719,76.406a44.486,44.486,0,0,1,17.8-3.691q1.345,0,2.671.079a36.185,36.185,0,1,1,41.648,40.259q.177,1.976.179,4a44.537,44.537,0,0,1-67.647,37.873,17.77,17.77,0,0,1-17.788,17.107,17.954,17.954,0,0,1-3.3-.3A38.021,38.021,0,0,1,38.99,202.46Z" transform="translate(5640 -741) rotate(180)" fill="url(#radial-gradient-5)"/>
      <g id="Group_199" data-name="Group 199" transform="translate(5465 -1288.2)">
        <circle id="Ellipse_114" data-name="Ellipse 114" cx="64" cy="64" r="64" fill="url(#radial-gradient-6)" style="mix-blend-mode: lighten;isolation: isolate"/>
        <g id="Group_198" data-name="Group 198" transform="translate(12.8 12.8)">
          <circle id="Ellipse_108" data-name="Ellipse 108" cx="51.2" cy="51.2" r="51.2" fill="url(#radial-gradient-7)"/>
          <path id="Intersection_11" data-name="Intersection 11" d="M0,.1A51.219,51.219,0,0,0,49.7,38.961,51.121,51.121,0,0,0,66.914,36C50.1,25,32.659,8.9,20.594,3.55A42.909,42.909,0,0,0,3.126,0C2.057,0,1.013.035,0,.1Z" transform="translate(1.496 63.439)" fill="url(#linear-gradient)"/>
          <path id="Intersection_12" data-name="Intersection 12" d="M0,10.07c9.632.646,27.5,11.265,44.456,22.212,18.034,11.645,37.47,8.209,54.227,4.09a50.784,50.784,0,0,0,1.937-7.193c-11.779.156-27.809-.474-38.886-9.159C44.325,6.372,25.731,16.286,2.97,0A50.837,50.837,0,0,0,0,10.07Z" transform="translate(0.86 31.734)" fill="url(#linear-gradient-2)"/>
          <path id="Intersection_13" data-name="Intersection 13" d="M29.551.523A135.912,135.912,0,0,1,7.5,1.671,51.53,51.53,0,0,0,0,9.451c10.08.39,24.044,2.373,35.839,9.079C56.7,30.391,61.832,20.459,81.525,37.552a57.486,57.486,0,0,0,9.956,6.972q.126-1.8.126-3.626a51.608,51.608,0,0,0-.619-7.983C68.648,21.062,64.714,0,37.429,0A63.185,63.185,0,0,0,29.551.523Z" transform="translate(10.793 10.302)" fill="url(#linear-gradient-3)"/>
        </g>
        <circle id="Ellipse_112" data-name="Ellipse 112" cx="51.2" cy="51.2" r="51.2" transform="translate(12.8 12.8)" opacity="0.2" fill="url(#radial-gradient-7)" style="mix-blend-mode: multiply;isolation: isolate"/>
        <circle id="Ellipse_113" data-name="Ellipse 113" cx="51.2" cy="51.2" r="51.2" transform="translate(12.8 12.8)" fill="url(#radial-gradient-6)" style="mix-blend-mode: lighten;isolation: isolate"/>
      </g>
      <g id="Group_220" data-name="Group 220" transform="translate(1140.13 -545.584)">
        <path id="Path_52" data-name="Path 52" d="M666.128-100.42s6,1.393,6,10c-.224-.828-2.55-4.32-6-4.633Z" transform="translate(3855.176 -1070.952) rotate(45)" fill="#614ad6"/>
        <path id="Path_46" data-name="Path 46" d="M0,0H3.975L2.485,69.57H1.491Z" transform="translate(4384.722 -672.42) rotate(45)" fill="url(#linear-gradient-4)"/>
        <path id="Path_48" data-name="Path 48" d="M0,0H11.926l-2,5.957H2Z" transform="translate(4381.002 -674.392) rotate(45)" fill="#d5d5d5"/>
        <path id="Intersection_16" data-name="Intersection 16" d="M6.963,5.971V.014h4.963l-2,5.957Z" transform="translate(4381.013 -674.402) rotate(45)" fill="#bababa"/>
        <path id="Path_45" data-name="Path 45" d="M672.128-100.42s-6,1.393-6,10c.224-.828,2.55-4.32,6-4.633Z" transform="translate(3839.663 -1086.465) rotate(45)" fill="#614ad6"/>
        <path id="Path_43" data-name="Path 43" d="M9.939,0c2.444,0,9.939,8.74,9.939,16.974S17.912,29.816,9.939,29.816,0,25.207,0,16.974,7.494,0,9.939,0Z" transform="translate(4396.814 -695.826) rotate(45)" fill="#e9e9e9"/>
        <path id="Intersection_15" data-name="Intersection 15" d="M0,17.038q0-.349.015-.7C.381,8.3,7.557,0,9.939,0a2.854,2.854,0,0,1,1.426.577c2.816,3.095,6.53,9.937,6.53,16.481,0,5.744-.751,9.841-3.258,12a12.743,12.743,0,0,1-4.7.759C1.986,29.816.01,25.231,0,17.038Z" transform="translate(4396.814 -695.826) rotate(45)" fill="#fff"/>
        <circle id="Ellipse_115" data-name="Ellipse 115" cx="3.975" cy="3.975" r="3.975" transform="translate(4397.873 -688.451) rotate(45)" fill="#826fe5"/>
        <path id="Intersection_14" data-name="Intersection 14" d="M1.709,7.242A3.976,3.976,0,0,1,7.242,1.709,3.976,3.976,0,0,1,1.709,7.242Z" transform="translate(4397.873 -688.451) rotate(45)" fill="#b0a3f5"/>
      </g>
    </g>
    <path id="Union_11" data-name="Union 11" d="M5.818,10.182,0,8,5.818,5.818,8,0l2.182,5.818L16,8l-5.818,2.182L8,16Z" transform="translate(254 342)" fill="#fff"/>
    <path id="Union_10" data-name="Union 10" d="M5.091,8.909,0,7,5.091,5.091,7,0,8.909,5.091,14,7,8.909,8.909,7,14Z" transform="translate(306 233)" fill="#ffe9a1"/>
    <path id="Union_13" data-name="Union 13" d="M5.818,10.182,0,8,5.818,5.818,8,0l2.182,5.818L16,8l-5.818,2.182L8,16Z" transform="translate(20 268)" fill="#fff"/>
    <path id="Union_16" data-name="Union 16" d="M3.637,6.364,0,5,3.637,3.637,5,0,6.364,3.637,10,5,6.364,6.364,5,10Z" transform="translate(54 20)" fill="#95fff4"/>
  </g>
</svg>
